<svg xmlns="http://www.w3.org/2000/svg" xmlns:xlink="http://www.w3.org/1999/xlink" width="40" height="40" viewBox="0 0 40 40">
  <defs>
    <path id="头像-copy-a" d="M0.0369226869,0.0546747605 C0.0420595709,-0.0208204021 0.0784893959,-0.0188336946 0.105522702,0.0339246579 C0.105522702,0.0339246579 0.78580521,1.37184191 1.0349806,1.73891677 C1.70308772,2.72314451 2.99299334,4.1036996 4.57823632,4.51660095 C6.1634793,4.9295023 7.32558065,4.83169874 9.16328885,4.51660095 C10.8870677,4.22103776 11.8503716,3.85247028 11.8503716,3.85247028 C11.9230651,3.82654377 11.9374005,3.85587403 11.8933817,3.90284943 C11.8933817,3.90284943 11.3941761,4.51660074 9.81453019,5.48450341 C8.47121061,6.30760094 6.97979967,6.95381947 5.13084584,6.95381947 C3.81813852,6.95381947 2.02599439,6.37116991 0.912649949,4.51660083 C-0.200694494,2.66203175 0.0369226869,0.0546747605 0.0369226869,0.0546747605 Z"/>
  </defs>
  <g fill="none" fill-rule="evenodd">
    <circle cx="20" cy="20" r="20" fill="#FFF"/>
    <g transform="translate(5 6)">
      <path fill="#FFE81A" d="M6.97723818,24.2275957 C11.7624148,27.3351258 18.5541485,25.3692943 22.147,19.8367882 C25.7398514,14.3042821 24.7732809,7.30014897 19.9881042,4.19261893 C15.2029276,1.08508889 8.41119391,3.05092037 4.81834246,8.58342644 C1.22549101,14.1159325 2.19206154,21.1200657 6.97723818,24.2275957 L6.97723818,24.2275957 Z"/>
      <path fill="#282200" d="M29.3677791,4.39259383 C29.3677791,4.39259383 26.5159318,2.84735997 22.7459898,1.83503458 C19.6630952,1.00719894 15.8442617,0.78312211 13.2701032,1.35015942 C10.6931236,1.91781816 7.54990268,3.46705338 5.16937539,6.16343226 C2.9420048,8.68633341 1.72466131,11.6777786 1.35590884,13.6494316 C0.708820743,17.1092949 1.27835753,19.7134663 2.00304255,21.3719555 C2.48564129,22.4764144 3.4121252,24.3329807 5.70094952,25.7476579 C6.62542618,26.3190587 8.64111444,27.2696002 11.1021192,27.3149329 C14.0488881,27.3692137 16.6223955,26.2768233 18.1813848,25.3115661 C20.7241473,23.7372001 21.8300661,22.2306502 21.8300661,22.2306502 C21.8300661,22.2306502 19.1058616,24.2102491 15.8933958,24.9824643 C13.145264,25.6430626 9.98448642,25.5991376 8.10756837,24.5798186 C5.97357214,23.4208852 4.0414002,21.3983012 3.74517118,18.2171719 C3.40131368,14.5245723 4.45760058,12.1741566 5.66822268,10.108494 C6.81880739,8.14527215 8.77548348,5.9979655 11.5557582,4.75093773 C13.9172359,3.69175167 16.1178336,3.57803971 17.592167,3.8529763 C19.2446169,4.16112839 21.1150087,5.03309744 22.6013136,7.32563606 C23.1222345,8.1291263 23.695158,9.74019494 23.8410964,10.3439331 C23.9870349,10.9476712 24.029203,11.4961692 24.029203,11.4961692 C24.0350083,11.5584415 24.0019034,11.6470278 23.9700701,11.6799424 C23.9700701,11.6799424 23.1776444,12.452581 22.7838931,13.4016595 C22.5293694,14.0151508 22.3415302,14.7256184 22.4471814,15.7570403 C22.5195635,16.4636715 22.9743557,17.0389413 22.9743557,17.0389413 C23.0048324,17.0806796 23.0197406,17.1639763 23.0037574,17.2253181 C23.0037574,17.2253181 22.968125,17.5875641 22.3415302,18.4683174 C21.7327941,19.3239682 21.1448055,20.2145024 19.6630951,21.2225763 C18.1813848,22.2306502 16.4548197,22.7951187 16.4548197,22.7951187 C16.4548197,22.7951187 17.7629095,22.7404711 19.1058616,22.2306502 C20.4488136,21.7208293 21.5541294,21.2073505 22.8153014,20.1060388 C24.0742018,19.0067109 24.9708544,17.5393097 24.9708544,17.5393097 C24.9888389,17.5105957 25.0372406,17.470291 25.0625698,17.4571591 C25.0625698,17.4571591 26.3486951,16.8344005 27.0381925,15.7570403 C27.6226035,14.8438806 27.9808383,13.4602125 27.6803833,12.3130682 C27.3809063,11.1696576 26.2311781,10.8239598 26.2311781,10.8239598 C26.1654204,10.7999632 26.101318,10.7195495 26.0864917,10.6382096 C26.0864917,10.6382096 25.9238775,9.68764669 25.6812024,8.89528973 C25.4375646,8.09978967 24.7038592,6.4542857 23.8791724,5.35615377 C23.2775629,4.55506581 22.3645698,3.66284425 22.3645698,3.66284425 C22.2178196,3.51552333 22.2685469,3.39781142 22.4778068,3.40214062 C22.4778068,3.40214062 23.9703787,3.39609612 25.7158703,3.6917517 C27.4613618,3.98740728 29.3677791,4.39259383 29.3677791,4.39259383 Z"/>
      <path fill="#282200" d="M11.9411931,11.6767856 C12.7070547,11.6767856 13.3279082,10.9831694 13.3279082,10.1275504 C13.3279082,9.27193138 12.7070547,8.57831514 11.9411931,8.57831514 C11.1753314,8.57831514 10.5544779,9.27193138 10.5544779,10.1275504 C10.5544779,10.9831694 11.1753314,11.6767856 11.9411931,11.6767856 Z" transform="rotate(30 11.941 10.128)"/>
      <ellipse cx="16.587" cy="11.925" fill="#282200" rx="1.387" ry="1.549" transform="rotate(30 16.587 11.925)"/>
      <g transform="translate(6.135 15.133)">
        <mask id="头像-copy-b" fill="#fff">
          <use xlink:href="#头像-copy-a"/>
        </mask>
        <use fill="#282200" xlink:href="#头像-copy-a"/>
        <ellipse cx="3.527" cy="6.595" fill="#E60012" mask="url(#头像-copy-b)" rx="1.387" ry="1" transform="rotate(20 3.527 6.595)"/>
      </g>
    </g>
  </g>
</svg>
